<svg width="66" height="66" viewBox="0 0 66 66" fill="none" xmlns="http://www.w3.org/2000/svg">
<rect x="5" y="5" width="56" height="56" rx="28" fill="#D1FADF"/>
<rect x="5" y="5" width="56" height="56" rx="28" stroke="#ECFDF3" stroke-width="10"/>
<path d="M44.6663 31.9267V33C44.6649 35.5158 43.8503 37.9638 42.3439 39.9788C40.8375 41.9938 38.7202 43.4679 36.3076 44.1812C33.895 44.8945 31.3165 44.8089 28.9566 43.937C26.5966 43.0652 24.5818 41.4538 23.2125 39.3433C21.8432 37.2327 21.1928 34.7361 21.3583 32.2257C21.5238 29.7153 22.4964 27.3257 24.131 25.4133C25.7656 23.5008 27.9746 22.168 30.4286 21.6135C32.8825 21.0591 35.45 21.3127 37.748 22.3367M44.6663 23.6667L32.9997 35.345L29.4997 31.845" stroke="#039855" stroke-width="2.33333" stroke-linecap="round" stroke-linejoin="round"/>
</svg>
