<svg width="20" height="21" viewBox="0 0 20 21" fill="none" xmlns="http://www.w3.org/2000/svg">
<g clip-path="url(#clip0_1864_1823)">
<path d="M12.7609 9.14609C13.6164 9.87172 13.7251 9.97258 14.1016 10.2968C14.3775 10.0602 14.6141 9.84496 15.6174 9.00363C17.4587 7.4575 18.7891 6.34113 18.7891 4.69207C18.7891 3.12879 17.6407 1.9043 16.1747 1.9043C15.1899 1.9043 14.5365 2.45992 14.1262 3.02582C13.7377 2.4582 13.106 1.9043 12.1184 1.9043C10.6524 1.9043 9.50453 3.12883 9.50453 4.69207C9.50449 6.38293 10.8 7.48211 12.7609 9.14609ZM3.3516 18.7793C4.88676 17.7363 6.56648 17.3378 8.39461 17.6425L11.3243 18.1464C12.4493 18.334 13.4805 18.2754 14.3711 17.9824C16.2136 17.3683 18.0581 15.4344 18.547 14.7011C19.2267 13.6816 19.6001 12.5683 19.8345 12.0293C20.0571 11.5137 20.0571 11.1504 19.8228 10.9395C19.5532 10.6933 19.0962 10.8222 18.7563 11.0098C18.2173 11.3145 17.6446 12.1934 17.0587 13.0371C16.297 14.1386 14.9923 14.7949 13.6563 14.7949H9.4141V13.623H11.1719C14.2891 13.623 15.6836 13.0371 15.6836 12.4511C15.6836 11.959 14.711 11.7363 14.3828 11.666C13.1055 11.373 10.2227 11.2324 8.25395 10.3535C7.89891 10.1982 7.49641 10.111 7.07043 10.1074C6.40254 10.1017 5.67668 10.3098 4.98438 10.8457C4.97273 10.8457 4.97273 10.8457 4.96098 10.8574C4.50395 11.2089 3.87895 11.7246 3.0352 12.4629C2.32031 13.0956 1.62895 13.9042 0.421875 14.9355L0 15.2988L2.88285 19.0957L3.3516 18.7793Z" fill="white"/>
</g>
<defs>
<clipPath id="clip0_1864_1823">
<rect width="20" height="20" fill="white" transform="translate(0 0.5)"/>
</clipPath>
</defs>
</svg>
