<svg width="100" height="100" viewBox="0 0 100 100" fill="none" xmlns="http://www.w3.org/2000/svg">
<path d="M29.251 67.4892C23.2077 62.4383 18.9708 56.8069 19.7758 49.1637C19.9107 47.9027 21.2664 47.519 21.9058 46.5949C23.485 44.3163 24.4903 41.9143 25.2645 39.3788C27.6987 31.3954 33.1989 25.9508 42.6394 23.8357C44.1339 23.5021 45.663 23.3853 47.2036 23.2819C48.363 23.2051 48.7867 23.4954 48.7443 24.5563C48.6519 26.7214 48.7173 28.8899 48.7173 31.0551C48.7173 40.78 48.6711 50.5049 48.7674 60.2264C48.7828 61.7744 48.182 62.2615 46.5489 62.3149C44.1916 62.3949 41.9422 62.7852 40.4478 64.6135C39.897 65.2874 39.3038 65.9613 39.5118 67.0889C41.3683 63.8128 44.6538 63.6126 48.0818 63.6426C49.4492 63.656 49.2104 64.5134 49.1988 65.1639C49.1064 69.1606 49.1834 73.1607 48.7482 77.1474C48.6904 77.6812 48.7366 78.2216 48.7135 78.7587C48.7019 79.0757 48.8483 79.5761 48.4323 79.6462C46.1252 80.0465 44.4343 81.6045 42.131 82.0382C35.6563 83.2525 30.9765 78.6253 30.7454 74.345C30.3526 67.0722 32.4825 60.2865 39.2153 55.5224C42.0462 53.5174 42.1425 51.3356 42.0462 48.8768C41.9384 46.0945 41.0178 43.4956 38.1098 41.8075C36.2071 40.7033 33.4917 40.5932 31.9471 41.564C30.16 42.6816 29.2202 45.0403 29.9443 46.9485C30.4681 48.3197 31.4195 49.434 33.2606 49.6308C35.3212 49.851 37.066 49.454 38.183 47.7459C38.468 47.3122 38.5566 46.4514 39.3424 46.6283C40.1435 46.8118 40.2899 47.5891 40.3438 48.2863C40.5441 50.9219 39.9201 53.0737 37.1007 54.7351C33.0603 57.1171 31.5427 60.9804 30.2409 64.867C29.9597 65.7044 29.9481 66.6218 29.2587 67.4892H29.251ZM45.6976 43.2387C45.7015 38.1378 37.3819 33.7907 32.1359 36.046C31.3886 36.3663 31.3578 36.8266 31.3925 37.3971C31.4349 38.1077 32.055 37.9376 32.5172 37.9443C33.2837 37.9609 34.0579 37.9743 34.8166 37.9109C40.0357 37.4705 42.4699 40.413 43.6293 43.4022C43.8758 44.0394 43.9028 44.79 45.0082 44.6266C46.1059 44.4664 45.4473 43.6424 45.6976 43.2354V43.2387ZM39.8662 70.3516C39.9009 72.1265 41.3337 72.6002 42.7164 73.1507C43.8604 73.6077 44.7963 73.6111 45.8363 72.8271C46.8801 72.0397 46.9456 71.1356 46.7838 70.1281C46.6336 69.2073 45.7978 68.8671 44.8734 68.7536C43.8296 68.6269 43.4983 69.3341 43.4906 70.0047C43.4752 71.5293 42.4738 71.3592 41.3645 71.0289C40.9023 70.8921 40.4825 70.6352 39.8662 70.3516ZM36.3689 75.0456C36.9081 74.762 37.9481 75.4226 37.9789 74.5419C38.0058 73.7712 37.0236 74.0247 36.4652 74.0448C35.8489 74.0681 34.7743 73.7011 34.7704 74.5485C34.7704 75.4026 35.8527 74.7587 36.365 75.0456H36.3689Z" fill="#191919"/>
<path d="M13.1235 16.9964C11.6213 20.6729 10.6006 24.3093 10.9627 28.1459C11.1861 30.5079 11.7446 32.7731 13.4239 34.7081C14.487 35.9324 15.8427 36.7898 17.6684 36.9166C17.9881 36.3595 17.5991 36.0826 17.3102 35.819C12.4186 31.3819 12.3416 26.2009 14.2019 20.7263C14.6333 19.4552 15.4268 18.2842 15.5077 16.9097C15.5423 16.3159 16.1085 15.9489 16.5977 15.5886C20.4455 12.7362 27.055 12.7495 30.8181 15.6186C31.1455 15.8688 31.6654 16.059 31.5614 16.5127C31.4497 17.0165 30.9067 16.9264 30.4637 16.9397C27.8677 17.0065 26.3771 18.2909 25.522 20.2892C24.9789 21.5603 24.8326 22.8747 24.8056 24.2159C24.7055 29.2735 24.7324 34.3311 24.12 39.372C23.7233 42.6481 21.5586 45.0435 18.8817 47.0819C16.5283 48.8734 13.0618 48.4263 11.2901 46.1978C9.7571 44.2662 7.98533 42.5213 6.29829 40.7031C1.35274 35.3653 -0.284222 29.1167 0.0393185 22.4277C0.170275 19.6887 1.8419 18.0974 4.76918 17.7304C7.48846 17.3901 10.2424 17.2433 13.1273 16.9998L13.1235 16.9964Z" fill="#191919"/>
<path d="M52.7228 63.6426C54.5177 63.5892 56.0121 63.8594 57.4296 64.4332C59.9524 65.4574 60.8075 66.8753 60.2952 69.2673C60.0602 70.3682 59.4825 71.219 58.0073 71.3891C56.5706 71.5526 55.6539 71.2323 55.496 69.8478C55.4575 69.5109 55.3111 68.9971 54.6756 69.1372C54.1325 69.2573 53.4662 69.3874 53.3699 69.9779C53.2158 70.8987 52.9655 71.8962 54.1325 72.5234C55.3188 73.1573 55.5153 74.0413 55.0723 75.1022C54.5446 76.3666 53.4662 77.0639 51.9717 77.3175C50.9741 77.4876 50.9934 76.9104 50.9664 76.3233C50.8124 72.7769 50.6891 69.2273 50.4619 65.6843C50.3579 64.0496 50.9356 63.2356 52.7228 63.6459V63.6426Z" fill="#191919"/>
<path d="M26.7504 31.2018C26.7504 28.0825 26.5155 25.04 26.812 22.0374C27.1317 18.7914 31.2222 17.4802 34.1687 19.5153C34.7157 19.8923 35.2125 20.3393 35.6478 20.8131C37.8201 23.165 37.7123 23.6755 34.7735 25.1567C32.3084 26.4011 30.2593 28.0558 28.4066 29.9174C27.9714 30.3545 27.6748 30.9349 26.7504 31.2018Z" fill="black"/>
<path d="M74.7768 69.0005C78.2163 69.224 81.6867 69.2874 85.0068 70.2349C85.5114 70.3784 86.4127 70.3216 86.3164 70.9555C86.2163 71.6294 85.3458 71.3525 84.8797 71.2758C80.77 70.6152 76.6179 70.4384 72.4542 70.345C71.9265 70.335 71.4297 70.315 71.4297 69.6544C71.4297 68.9772 71.9497 69.0039 72.4696 69.0005C73.24 68.9939 74.0064 69.0005 74.7768 69.0005Z" fill="black"/>
<path d="M23.6232 69.3374C24.7094 69.3374 25.7994 69.3207 26.8856 69.3474C27.2862 69.3574 27.8678 69.224 27.8524 69.8479C27.837 70.4217 27.2939 70.3583 26.8702 70.3916C24.4514 70.5918 22.0287 70.7786 19.6098 70.9721C18.0845 71.0922 16.5593 71.259 15.034 71.3024C14.4986 71.3191 13.5627 71.7094 13.451 70.9354C13.3624 70.3216 14.1789 70.1114 14.8453 70.0447C17.4452 69.7745 20.0258 69.3308 22.6642 69.3474C22.9839 69.3474 23.3036 69.3474 23.6232 69.3474C23.6232 69.3474 23.6232 69.3408 23.6232 69.3374Z" fill="black"/>
<path d="M80.1048 66.9822C78.1212 66.9822 76.1414 66.9822 74.1578 66.9822C73.5877 66.9822 72.9484 67.0522 73.01 66.2616C73.0639 65.5677 73.6725 65.7011 74.1424 65.6978C77.9787 65.6811 81.8149 65.6778 85.6512 65.6878C86.2752 65.6878 87.1033 65.6878 87.1148 66.4284C87.1264 67.3558 86.1827 66.9488 85.6666 66.9655C83.8139 67.0189 81.9574 66.9855 80.1048 66.9855V66.9822Z" fill="black"/>
<path d="M19.3592 66.9822C17.5027 66.9822 15.6462 66.9822 13.7858 66.9855C13.3121 66.9855 12.8345 66.9555 12.7728 66.4551C12.6958 65.8245 13.3506 65.9747 13.7203 65.928C17.4796 65.4409 21.2619 65.7578 25.0366 65.6944C25.5142 65.6877 25.9109 65.7411 25.9379 66.2949C25.9687 66.9688 25.4641 66.9788 24.9326 66.9788C23.0761 66.9788 21.2196 66.9788 19.3592 66.9788V66.9822Z" fill="black"/>
<path d="M61.8238 81.4444C59.1468 82.7154 56.8358 82.3985 54.5402 82.1183C54.1705 82.0749 53.7969 81.9448 53.4618 81.7947C52.2369 81.2409 50.0107 81.0073 50.8349 79.426C51.3202 78.4919 52.9996 79.7162 54.0934 80.0865C55.6457 80.6137 57.194 81.064 58.8849 81.0941C59.6899 81.1074 60.4911 81.2809 61.8238 81.4477V81.4444Z" fill="#757575"/>
<path d="M26.2537 72.6369C26.7736 72.7703 27.594 72.3867 27.7366 72.9805C27.8983 73.6511 27.0741 73.8145 26.4732 73.9747C24.2893 74.5552 22.1016 75.1257 19.9138 75.6961C19.5594 75.7896 19.1897 75.9664 18.9316 75.536C18.689 75.129 18.947 74.9021 19.3168 74.7654C21.5777 73.928 23.6846 72.6969 26.2537 72.6369Z" fill="black"/>
<path d="M80.7323 76.0632C77.7627 75.1558 75.1166 74.3551 72.482 73.5377C72.197 73.451 71.8388 73.3342 71.912 72.9806C71.9351 72.8672 72.1354 72.7404 72.2856 72.6903C74.2538 72.0098 79.7039 74.0382 80.7323 76.0632Z" fill="black"/>
<path d="M78.6016 71.8796C81.3016 71.8195 83.5818 72.807 85.8697 73.7612C86.3357 73.9547 86.5784 74.3016 86.3473 74.7053C86.1239 75.0956 85.6809 74.8721 85.3343 74.7887C82.8731 74.1949 80.7392 73.0405 78.6054 71.8829L78.6016 71.8796Z" fill="black"/>
<path d="M19.1742 72.7137C17.4409 73.5844 16.1853 74.2217 14.9219 74.8455C14.5945 75.009 14.244 75.1825 13.9436 74.7855C13.7664 74.5486 13.8627 74.3351 14.0823 74.215C15.4727 73.451 16.7245 72.3334 19.1703 72.7137H19.1742Z" fill="#4A4944"/>
<path d="M99.0542 4.00222C98.5458 0.132285 96.2039 -0.901922 92.1481 0.772826C83.297 4.43259 75.7207 9.60362 68.7569 15.4986C66.2726 17.6004 64.081 19.919 62.9023 22.8348C62.6019 23.5788 62.6019 24.0325 63.5032 24.4528C67.1931 26.171 70.105 28.6364 72.4622 31.6189C72.624 31.8224 72.7819 32.126 73.2633 31.9558C73.4059 29.8774 73.429 27.7656 73.714 25.6839C74.338 21.0967 75.143 16.5395 78.6634 12.773C82.0144 9.18994 86.1356 6.38423 90.5805 3.90881C91.4664 3.41506 92.437 3.1515 93.5039 3.26827C93.9237 3.31498 94.1895 3.55518 94.3359 3.88212C94.5439 4.34585 94.074 4.40256 93.7658 4.5727C90.7346 6.22743 87.8304 8.03897 85.115 10.064C80.5854 13.4435 77.4386 17.7005 75.8594 22.6346C74.3996 27.1885 74.7771 31.8891 75.921 36.5097C76.3216 38.1177 76.6759 39.7524 77.7737 41.4105C79.5416 39.5289 81.4327 37.9542 83.6975 36.7766C86.7481 35.1952 88.2117 32.7832 88.7124 29.834C88.8164 29.2302 88.9127 28.623 89.0283 28.0225C89.0783 27.7656 89.0283 27.4354 89.4365 27.3586C89.8718 27.2786 90.0027 27.5888 90.049 27.849C90.3764 29.6973 91.8939 29.8407 93.5771 29.6906C95.0793 29.5571 95.2333 30.1843 94.6556 31.1318C92.853 34.0876 90.6999 36.7199 86.6864 37.6974C84.3562 38.2678 82.4149 39.4255 80.7626 40.9701C77.8507 43.6891 78.9677 45.4739 82.0144 47.162C84.2406 48.3964 86.413 47.5123 88.1116 45.6507C88.8241 44.8667 89.1823 43.9193 90.0644 43.1753C92.2367 41.3371 94.6247 39.6557 95.8958 37.0735C98.3069 32.176 100.067 27.2185 99.9978 21.8073C99.9247 15.8589 99.8207 9.92389 99.0426 4.0089L99.0542 4.00222Z" fill="#3B3B3B"/>
<path d="M75.5093 42.0677C74.531 39.8392 73.622 37.5739 72.4703 35.4121C68.584 28.1026 61.9629 24.1659 52.6766 23.5554C51.5942 23.4854 51.1436 23.6722 51.1474 24.663C51.1706 31.9992 51.1744 39.3354 51.1397 46.6716C51.132 47.8493 51.6674 47.8059 52.6573 47.4489C53.4584 47.1587 53.6587 46.6816 53.6279 46.0077C53.5856 45.1203 53.5316 44.2295 53.5778 43.3421C53.8513 37.8642 61.4391 33.754 67.2513 35.8958C68.141 36.2261 68.6957 36.6798 68.4299 37.5272C68.1487 38.4113 67.2783 38.0443 66.6543 37.9676C61.0116 37.2837 57.287 39.6157 56.1315 44.5031C55.8657 45.6274 56.0314 46.5548 57.0097 47.469C57.5143 46.3747 57.9534 45.3405 58.4656 44.3363C59.6442 42.0344 61.7742 40.8267 64.609 40.6265C67.5017 40.423 69.8435 41.3338 71.4227 43.5323C71.8926 44.1862 72.0197 44.7833 71.1531 45.2437C70.3057 45.6941 70.0129 45.1003 69.7472 44.5965C68.9537 43.0986 67.6788 42.4347 66.0611 42.3213C67.3168 42.7717 68.1988 43.8426 68.1988 45.0936C68.1988 46.7517 66.6466 48.0961 64.7323 48.0961C62.818 48.0961 61.2658 46.7517 61.2658 45.0936C61.2658 44.4531 61.4969 43.8626 61.8936 43.3755C61.6009 43.5089 61.2773 43.8626 60.8652 44.4331C59.417 46.4347 59.5749 48.6633 59.6173 50.8918C59.6404 52.1296 60.1527 53.0203 61.3967 53.6275C64.012 54.9052 65.6875 56.8969 67.0472 59.1588C68.3028 61.2439 69.0077 63.4958 69.9205 65.6843C70.3403 66.6885 70.8334 66.9521 71.6769 65.9112C72.6321 64.7302 73.6759 63.5992 74.7236 62.475C76.8035 60.2431 78.4905 57.831 79.1761 54.992C79.9695 51.7159 80.6821 48.4665 77.5622 45.6241C76.5261 44.6799 76.0639 43.3154 75.5131 42.0644L75.5093 42.0677Z" fill="#757575"/>
<path d="M64.7321 48.0995C66.6464 48.0995 68.1986 46.755 68.1986 45.0969C68.1986 43.8459 67.3166 42.775 66.061 42.3246C65.6257 42.2946 65.1712 42.3012 64.6898 42.3446C65.2213 43.659 65.2174 43.7424 65.0326 44.2662C64.8901 44.6732 64.6936 44.9601 64.1197 44.9468C63.6806 44.9334 63.4957 44.7867 63.2878 44.433C62.7485 43.5122 62.3634 43.1653 61.8935 43.3821C61.5006 43.8692 61.2656 44.4597 61.2656 45.1003C61.2656 46.7583 62.8179 48.1028 64.7321 48.1028V48.0995Z" fill="#191919"/>
<path d="M80.4087 84.3167C77.1502 84.3167 74.5156 86.5986 74.5156 89.421C74.5156 93.2475 80.4087 98.899 80.4087 98.899C80.4087 98.899 86.3018 93.2475 86.3018 89.421C86.3018 86.5986 83.6672 84.3167 80.4087 84.3167ZM80.4087 91.2458C79.2455 91.2458 78.3057 90.4285 78.3057 89.4243C78.3057 88.4201 79.2493 87.6028 80.4087 87.6028C81.5681 87.6028 82.5117 88.4201 82.5117 89.4243C82.5117 90.4285 81.5681 91.2458 80.4087 91.2458Z" fill="#D01107"/>
<path d="M22.0516 86.6887L19.3208 96.3335H15.5153L13.9823 90.4252L12.4186 96.3335H8.6131L5.91309 86.6887H9.26019L10.5544 93.281L12.3069 86.6887H15.704L17.4103 93.2276L18.7045 86.6887H22.0516Z" fill="#1A1A1A"/>
<path d="M25.7377 95.9465C25.0367 95.6263 24.4859 95.1726 24.0891 94.5787C23.6886 93.9849 23.4883 93.2876 23.4883 92.487C23.4883 91.6863 23.6924 90.999 24.0968 90.4085C24.5013 89.8147 25.0559 89.361 25.7531 89.0407C26.4502 88.7204 27.2475 88.5603 28.1295 88.5603C29.0116 88.5603 29.805 88.7204 30.506 89.0407C31.207 89.361 31.7578 89.8147 32.1623 90.4085C32.5667 91.0024 32.7708 91.6929 32.7708 92.487C32.7708 93.281 32.5667 93.9749 32.1623 94.572C31.7578 95.1692 31.1993 95.6263 30.4945 95.9465C29.7896 96.2668 28.9923 96.4236 28.1103 96.4236C27.2283 96.4236 26.4348 96.2635 25.7338 95.9465H25.7377ZM29.1965 93.6846C29.4853 93.4077 29.6317 93.0074 29.6317 92.487C29.6317 91.9665 29.4853 91.5695 29.1965 91.296C28.9076 91.0224 28.5532 90.8856 28.1295 90.8856C27.7059 90.8856 27.3554 91.0224 27.0703 91.296C26.7853 91.5695 26.6428 91.9665 26.6428 92.487C26.6428 93.0074 26.7815 93.4177 27.0549 93.6913C27.3284 93.9649 27.6827 94.1017 28.1141 94.1017C28.5455 94.1017 28.9076 93.9615 29.1965 93.6846Z" fill="#1A1A1A"/>
<path d="M36.4105 95.9465C35.7095 95.6263 35.1587 95.1726 34.762 94.5787C34.3614 93.9849 34.1611 93.2876 34.1611 92.487C34.1611 91.6863 34.3653 90.999 34.7697 90.4085C35.1741 89.8147 35.7288 89.361 36.4259 89.0407C37.1231 88.7204 37.9204 88.5603 38.8024 88.5603C39.6844 88.5603 40.4779 88.7204 41.1789 89.0407C41.8799 89.361 42.4307 89.8147 42.8351 90.4085C43.2395 91.0024 43.4437 91.6929 43.4437 92.487C43.4437 93.281 43.2395 93.9749 42.8351 94.572C42.4307 95.1692 41.8722 95.6263 41.1673 95.9465C40.4625 96.2668 39.6652 96.4236 38.7831 96.4236C37.9011 96.4236 37.1077 96.2635 36.4067 95.9465H36.4105ZM39.8693 93.6846C40.1582 93.4077 40.3045 93.0074 40.3045 92.487C40.3045 91.9665 40.1582 91.5695 39.8693 91.296C39.5804 91.0224 39.2261 90.8856 38.8024 90.8856C38.3787 90.8856 38.0282 91.0224 37.7432 91.296C37.4582 91.5695 37.3157 91.9665 37.3157 92.487C37.3157 93.0074 37.4543 93.4177 37.7278 93.6913C38.0013 93.9649 38.3556 94.1017 38.787 94.1017C39.2184 94.1017 39.5804 93.9615 39.8693 93.6846Z" fill="#1A1A1A"/>
<path d="M50.1267 90.8854H48.7362V96.33H45.6241V90.8854H44.6611V88.6568H45.6241V88.5868C45.6241 87.6026 45.9591 86.8486 46.6255 86.3215C47.2957 85.7977 48.2547 85.5342 49.5065 85.5342C49.7607 85.5342 49.9533 85.5375 50.092 85.5475V87.8328C50.0073 87.8228 49.8917 87.8194 49.7453 87.8194C49.4064 87.8194 49.1599 87.8862 49.002 88.0163C48.844 88.1497 48.7555 88.3599 48.7323 88.6535H50.1228V90.882L50.1267 90.8854Z" fill="#1A1A1A"/>
<path d="M55.7544 95.6262C54.9224 95.0924 54.4756 94.3284 54.4102 93.3342H57.711C57.7418 93.6712 57.8574 93.9181 58.0577 94.0715C58.258 94.225 58.516 94.3051 58.8319 94.3051C59.1169 94.3051 59.3519 94.2417 59.5329 94.1216C59.7139 94.0015 59.8102 93.828 59.8102 93.6078C59.8102 93.3242 59.6561 93.1074 59.3519 92.9506C59.0476 92.7971 58.5507 92.6236 57.869 92.4301C57.141 92.22 56.5555 92.0165 56.1087 91.823C55.6619 91.6261 55.2729 91.3392 54.9417 90.9622C54.6104 90.5853 54.4448 90.0882 54.4448 89.4776C54.4448 88.8671 54.622 88.3267 54.9802 87.883C55.3384 87.4393 55.8314 87.1056 56.4631 86.8788C57.0948 86.6519 57.8112 86.5352 58.6123 86.5352C59.9065 86.5352 60.9426 86.7987 61.7168 87.3225C62.491 87.8463 62.9031 88.5836 62.957 89.531H59.5945C59.583 89.2408 59.4828 89.0206 59.2864 88.8738C59.0899 88.727 58.8396 88.6536 58.5353 88.6536C58.3042 88.6536 58.1155 88.7137 57.9652 88.8304C57.8189 88.9505 57.7457 89.1173 57.7457 89.3375C57.7457 89.521 57.8266 89.6778 57.9922 89.8113C58.154 89.9447 58.3581 90.0581 58.6008 90.1515C58.8434 90.2483 59.2016 90.3684 59.6754 90.5152C60.3802 90.7254 60.9619 90.9322 61.4202 91.1391C61.8786 91.3459 62.2714 91.6328 62.6065 91.9998C62.9416 92.3668 63.1034 92.8372 63.1034 93.401C63.1034 93.9648 62.9378 94.4919 62.6065 94.9456C62.2753 95.4027 61.7977 95.763 61.1698 96.0265C60.542 96.2901 59.8025 96.4235 58.9513 96.4235C57.6571 96.4235 56.594 96.1566 55.7621 95.6228L55.7544 95.6262Z" fill="#1A1A1A"/>
<path d="M69.2853 88.8771C69.7283 88.6669 70.2482 88.5635 70.8491 88.5635C71.5539 88.5635 72.1933 88.7236 72.7672 89.0439C73.3411 89.3642 73.7956 89.8179 74.1269 90.4117C74.4581 91.0055 74.6237 91.6961 74.6237 92.4901C74.6237 93.2841 74.4581 93.978 74.1269 94.5752C73.7956 95.1724 73.3411 95.6294 72.7672 95.9497C72.1933 96.27 71.5539 96.4268 70.8491 96.4268C70.2482 96.4268 69.7321 96.3234 69.293 96.1132C68.8578 95.903 68.5111 95.6194 68.2569 95.2658V99.9998H65.1602V88.6602H68.2569V89.7278C68.4996 89.3708 68.8424 89.0906 69.2853 88.8804V88.8771ZM71.0147 91.3158C70.7027 91.0389 70.3214 90.8988 69.8708 90.8988C69.4201 90.8988 69.0349 91.0389 68.7268 91.3225C68.4148 91.606 68.2608 91.993 68.2608 92.4868C68.2608 92.9805 68.4148 93.3809 68.7268 93.6645C69.0388 93.948 69.4201 94.0881 69.8708 94.0881C70.3214 94.0881 70.7066 93.9447 71.0147 93.6578C71.3267 93.3709 71.4808 92.9805 71.4808 92.4901C71.4808 91.9997 71.3267 91.5994 71.0147 91.3191V91.3158Z" fill="#1A1A1A"/>
<path d="M92.5444 94.045V96.3302H91.2002C88.9354 96.3302 87.8068 95.3594 87.8068 93.4178V90.889H86.7168V88.6604H87.8068V86.7988H90.919V88.6604H92.529V90.889H90.919V93.4611C90.919 93.6713 90.9729 93.8214 91.0846 93.9115C91.1963 94.0016 91.3812 94.0483 91.6469 94.0483H92.5482L92.5444 94.045Z" fill="#1A1A1A"/>
</svg>
