<svg width="20" height="21" viewBox="0 0 20 21" fill="none" xmlns="http://www.w3.org/2000/svg">
<g clip-path="url(#clip0_1864_2006)">
<path d="M3.33301 8C4.71372 8 5.83301 6.88071 5.83301 5.5C5.83301 4.11929 4.71372 3 3.33301 3C1.9523 3 0.833008 4.11929 0.833008 5.5C0.833008 6.88071 1.9523 8 3.33301 8Z" fill="white"/>
<path d="M6.075 9.72565C5.23625 10.249 4.54449 10.9773 4.06485 11.8418C3.58521 12.7063 3.33347 13.6787 3.33333 14.6673H1.66667C1.22504 14.666 0.801888 14.49 0.489612 14.1777C0.177337 13.8654 0.00131894 13.4423 0 13.0007L0 11.334C0.00197841 10.6716 0.266006 10.0368 0.734419 9.5684C1.20283 9.09999 1.83757 8.83596 2.5 8.83398H4.16667C4.53048 8.8348 4.88972 8.91502 5.21933 9.06903C5.54893 9.22303 5.84095 9.44712 6.075 9.72565Z" fill="white"/>
<path d="M16.667 8C18.0477 8 19.167 6.88071 19.167 5.5C19.167 4.11929 18.0477 3 16.667 3C15.2863 3 14.167 4.11929 14.167 5.5C14.167 6.88071 15.2863 8 16.667 8Z" fill="white"/>
<path d="M19.9998 11.334V13.0007C19.9985 13.4423 19.8225 13.8654 19.5102 14.1777C19.1979 14.49 18.7748 14.666 18.3331 14.6673H16.6665C16.6663 13.6787 16.4146 12.7063 15.935 11.8418C15.4553 10.9773 14.7636 10.249 13.9248 9.72565C14.1589 9.44712 14.4509 9.22303 14.7805 9.06903C15.1101 8.91502 15.4693 8.8348 15.8331 8.83398H17.4998C18.1622 8.83596 18.797 9.09999 19.2654 9.5684C19.7338 10.0368 19.9978 10.6716 19.9998 11.334Z" fill="white"/>
<path d="M10.0003 9.66667C11.8413 9.66667 13.3337 8.17428 13.3337 6.33333C13.3337 4.49238 11.8413 3 10.0003 3C8.15938 3 6.66699 4.49238 6.66699 6.33333C6.66699 8.17428 8.15938 9.66667 10.0003 9.66667Z" fill="white"/>
<path d="M15 14.6667V15.5C14.998 16.1624 14.734 16.7972 14.2656 17.2656C13.7972 17.734 13.1624 17.998 12.5 18H7.5C6.83757 17.998 6.20283 17.734 5.73442 17.2656C5.26601 16.7972 5.00198 16.1624 5 15.5V14.6667C5 13.5616 5.43899 12.5018 6.22039 11.7204C7.00179 10.939 8.0616 10.5 9.16667 10.5H10.8333C11.9384 10.5 12.9982 10.939 13.7796 11.7204C14.561 12.5018 15 13.5616 15 14.6667Z" fill="white"/>
</g>
<defs>
<clipPath id="clip0_1864_2006">
<rect width="20" height="20" fill="white" transform="translate(0 0.5)"/>
</clipPath>
</defs>
</svg>
