<svg width="24" height="25" viewBox="0 0 24 25" fill="none" xmlns="http://www.w3.org/2000/svg">
<path fill-rule="evenodd" clip-rule="evenodd" d="M18.8069 10.2142C19.4532 9.93136 19.9434 9.45222 20.4033 8.97136C20.9274 8.42321 20.9343 7.73621 20.9343 7.37664C20.9343 6.80493 20.3973 6.35407 19.5243 6.33307C19.0619 6.32193 18.7794 6.43721 18.3942 6.71793C18.1182 6.9185 17.4714 7.57507 17.7599 8.11207C17.7747 8.14007 17.7994 8.17393 17.834 8.21364C17.8681 8.25336 17.8872 8.30382 17.8878 8.35616C17.8884 8.40851 17.8706 8.45941 17.8374 8.49993C17.8042 8.54042 17.7564 8.56634 17.7043 8.57219C17.6522 8.57803 17.5999 8.56333 17.5584 8.53121L17.513 8.49607C16.943 8.06064 16.6327 7.89864 16.6327 7.25364C16.6327 6.03993 18.2343 4.87379 19.781 4.91107C21.326 4.94836 22.529 6.06393 22.529 7.36464C22.529 8.07607 22.0756 9.08536 21.3342 9.86107C20.8602 10.3573 20.2878 10.7491 19.6537 11.0114C19.694 11.0776 19.7354 11.1495 19.778 11.2269C20.198 11.9924 20.1432 12.0854 20.1967 13.0415C20.2499 13.9981 19.967 15.7081 20.0754 16.5506C20.1843 17.3928 20.7282 17.4866 20.8477 18.0935C20.9234 18.4781 21.1116 20.1466 21.4122 23.0992C21.4184 23.159 21.412 23.2194 21.3934 23.2765C21.3748 23.3337 21.3444 23.3862 21.3041 23.4309C21.2639 23.4755 21.2147 23.5111 21.1598 23.5355C21.1048 23.5599 21.0454 23.5724 20.9853 23.5724H20.1037C19.9904 23.5721 19.8817 23.527 19.8015 23.4468C19.7214 23.3667 19.6762 23.258 19.676 23.1446V22.9316C19.676 22.7966 19.7394 22.6694 19.8474 22.5888L19.9837 22.4864C20.0479 22.4383 20.0972 22.3732 20.1263 22.2986C20.1553 22.2239 20.1628 22.1425 20.1479 22.0638C19.9136 20.8158 19.7076 20.0645 19.5299 19.8099C19.3987 19.6214 18.8064 19.3141 18.0427 18.7184C17.9059 18.6115 17.6602 18.3841 17.3056 18.0361C17.2771 18.0079 17.2412 17.9882 17.2021 17.9794C17.163 17.9706 17.1222 17.9729 17.0843 17.9861C17.0464 17.9993 17.013 18.0229 16.9879 18.0542C16.9628 18.0854 16.9469 18.1231 16.9422 18.1629C16.8776 18.6786 16.7974 19.1132 16.7017 19.4666C16.586 19.8929 16.2304 21.0039 15.635 22.7996C15.6067 22.8852 15.5521 22.9597 15.479 23.0125C15.4059 23.0653 15.318 23.0937 15.2279 23.0936H14.1059C14.0043 23.0935 13.9069 23.0531 13.8351 22.9813C13.7633 22.9095 13.7228 22.8121 13.7227 22.7105V22.6848C13.7226 22.5843 13.7578 22.4871 13.8221 22.4099C13.8864 22.3327 13.9758 22.2806 14.0746 22.2626L14.5559 22.1744C14.9013 20.9126 15.052 19.9885 15.008 19.4019C14.9772 18.9871 14.6969 18.5045 14.4144 17.6645C14.3556 17.4899 14.273 17.1328 14.1667 16.5931C14.1611 16.5644 14.1496 16.5372 14.133 16.5131C14.1165 16.489 14.0951 16.4685 14.0704 16.453C14.0456 16.4375 14.0179 16.4272 13.989 16.4227C13.9601 16.4183 13.9306 16.4198 13.9023 16.4272L11.0467 17.1669C11.0153 17.175 10.9861 17.1902 10.9614 17.2112C10.9367 17.2322 10.9171 17.2586 10.904 17.2883C10.891 17.318 10.8849 17.3503 10.8861 17.3827C10.8874 17.4152 10.896 17.4469 10.9113 17.4755L10.9786 17.6024C11.1072 17.8432 11.174 18.1124 11.174 18.3854V22.3968C11.174 22.5301 11.1119 22.6561 11.006 22.7375L10.4073 23.1961C10.3323 23.2537 10.2404 23.2849 10.1459 23.2848H9.71602C9.6597 23.2848 9.60394 23.2737 9.55191 23.2521C9.49989 23.2306 9.45263 23.199 9.41282 23.1591C9.37302 23.1193 9.34146 23.072 9.31995 23.0199C9.29844 22.9679 9.28739 22.9121 9.28745 22.8558V22.6372C9.28745 22.4816 9.37102 22.3381 9.50688 22.2622L9.81545 22.0899C9.88754 22.0498 9.94651 21.9897 9.98528 21.9169C10.024 21.844 10.041 21.7616 10.034 21.6794C9.98545 21.1002 9.92516 20.6598 9.85316 20.3581C9.77945 20.0466 9.60045 19.4915 9.31616 18.6926C9.30447 18.6598 9.28493 18.6302 9.25924 18.6066C9.23355 18.583 9.20248 18.566 9.16873 18.5572C9.13498 18.5483 9.09958 18.5478 9.06559 18.5557C9.03161 18.5637 9.00008 18.5798 8.97373 18.6026L8.89016 18.6746C8.68059 18.8559 8.42473 18.9746 8.15131 19.0188L5.47188 19.4474C5.43374 19.4535 5.39796 19.4698 5.36833 19.4945C5.33869 19.5193 5.3163 19.5516 5.30353 19.5881C5.29075 19.6245 5.28806 19.6637 5.29574 19.7016C5.30342 19.7394 5.32119 19.7745 5.34716 19.8031L5.63216 20.1168C5.70416 20.1956 5.74359 20.2985 5.74359 20.4052V20.6855C5.74362 20.7429 5.73212 20.7997 5.70978 20.8525C5.68745 20.9054 5.65472 20.9532 5.61355 20.9932C5.57239 21.0332 5.52361 21.0644 5.47012 21.0852C5.41663 21.106 5.35952 21.1158 5.30216 21.1141L4.95073 21.1038C4.88682 21.1019 4.82412 21.0858 4.76724 21.0566C4.71036 21.0274 4.66074 20.9858 4.62202 20.9349L4.17888 20.3546C4.12185 20.2799 4.09098 20.1885 4.09102 20.0945V19.2425C4.09102 19.0938 4.16816 18.9554 4.29459 18.8774C6.12516 17.7459 7.11773 17.1202 7.27231 17.0002C7.43259 16.8759 7.49945 16.6682 7.47288 16.3771C7.17459 15.4912 6.69673 15.1775 6.48202 14.6529C6.26731 14.1284 5.86916 12.4972 5.67202 11.8706C5.27559 10.6106 4.92759 9.94421 4.83373 9.74493C4.62288 9.2975 4.25088 9.23407 3.85788 9.07979C3.46488 8.9255 2.71788 8.94864 2.23188 8.52221C1.74631 8.09536 1.79088 7.64964 1.67773 7.1645V6.57093C1.67773 6.33393 1.87016 6.14193 2.10716 6.14193H3.27116C3.42845 6.14193 3.57288 6.05621 3.64831 5.91779C3.78116 5.67379 3.99345 5.44079 4.28516 5.21879C4.67346 4.92495 5.11612 4.71098 5.58759 4.58922C5.48045 3.25464 5.48045 2.50079 5.58759 2.32764C5.69473 2.1545 5.99288 2.42536 6.48202 3.14021C6.55173 2.2985 6.68816 1.98993 6.89131 2.2145C7.08073 2.4245 7.40759 3.18736 7.87188 4.50307C7.93273 4.6745 8.02059 4.8365 8.13202 4.98093C8.32688 5.23293 8.50288 5.53436 8.66002 5.88521C8.95873 6.55207 9.30759 8.29379 9.92516 9.1505C10.5423 10.0072 10.9027 10.0775 11.7942 10.2361C12.3864 10.3415 14.4286 10.0046 16.1013 9.9395C17.3896 9.88893 18.4259 10.1058 18.6127 10.1538C18.6799 10.1709 18.7446 10.1914 18.8069 10.2142Z" fill="white"/>
</svg>
