<svg width="17" height="21" viewBox="0 0 17 21" fill="none" xmlns="http://www.w3.org/2000/svg">
<path d="M16.6196 15.5202C16.56 15.4778 14.2294 10.4119 14.0974 10.1865C14.1355 10.0663 14.1421 9.93826 14.1165 9.81474C14.0909 9.69121 14.0339 9.57635 13.9511 9.48117C13.0361 8.67117 10.806 10.7637 9.92363 11.5639C9.53513 11.9764 6.84375 14.4567 7.67175 15.4977C7.76206 15.5826 7.87258 15.643 7.99283 15.6732C8.11307 15.7034 8.23903 15.7024 8.35875 15.6702L11.8268 17.4942L10.1453 19.1082C10.0545 19.1929 9.98182 19.2951 9.93155 19.4087C9.88129 19.5222 9.85449 19.6448 9.85275 19.7689C9.86406 19.9535 9.91597 20.1333 10.0048 20.2955C10.0936 20.4576 10.2171 20.5982 10.3665 20.7072C10.4525 20.7972 10.5554 20.8693 10.6692 20.9196C10.7831 20.9698 10.9058 20.9971 11.0302 20.9998C11.1547 21.0026 11.2784 20.9809 11.3944 20.9358C11.5105 20.8907 11.6165 20.8232 11.7064 20.7372L13.9586 18.579C15.7346 19.1843 17.4649 17.2077 16.6196 15.5202ZM8.28713 14.9269C8.283 14.5943 9.0315 13.4719 10.4415 12.1047C11.8721 10.7445 12.9998 10.086 13.3579 10.0628C13.1569 10.6395 12.5569 11.5373 11.181 12.8775C9.79238 14.1773 8.86425 14.7604 8.28713 14.9269ZM10.4216 7.46142C10.3724 7.46335 10.324 7.47497 10.2793 7.49559C10.2346 7.51622 10.1943 7.54546 10.1609 7.58165C10.1275 7.61783 10.1015 7.66025 10.0845 7.70647C10.0674 7.75269 10.0597 7.80182 10.0616 7.85105L10.1186 9.30605C10.1226 9.4055 10.1658 9.49933 10.2389 9.56687C10.312 9.63442 10.409 9.67016 10.5084 9.66623C10.6079 9.66231 10.7017 9.61903 10.7693 9.54593C10.8368 9.47282 10.8726 9.37588 10.8686 9.27642L10.8113 7.82142C10.81 7.77196 10.7988 7.72325 10.7784 7.67818C10.7579 7.63311 10.7287 7.5926 10.6923 7.55904C10.6559 7.52547 10.6132 7.49954 10.5667 7.48278C10.5201 7.46601 10.4707 7.45875 10.4213 7.46142H10.4216ZM6.20813 11.5422C6.10969 11.5354 6.01255 11.5676 5.93771 11.6319C5.86287 11.6962 5.81635 11.7874 5.80822 11.8857C5.80009 11.984 5.831 12.0816 5.89426 12.1573C5.95752 12.2331 6.04804 12.2808 6.14625 12.2903L7.5975 12.4103C7.69676 12.4185 7.79521 12.3869 7.8712 12.3226C7.94718 12.2582 7.99448 12.1662 8.00269 12.067C8.01089 11.9677 7.97933 11.8693 7.91495 11.7933C7.85057 11.7173 7.75863 11.67 7.65938 11.6618L6.20813 11.5422ZM8.55 10.6729C8.5841 10.7085 8.62488 10.7371 8.67002 10.7569C8.71515 10.7768 8.76375 10.7875 8.81304 10.7886C8.86233 10.7896 8.91135 10.781 8.95729 10.7631C9.00324 10.7452 9.04521 10.7185 9.08081 10.6844C9.11642 10.6503 9.14496 10.6095 9.1648 10.5643C9.18464 10.5192 9.1954 10.4706 9.19647 10.4213C9.19753 10.372 9.18887 10.323 9.17099 10.2771C9.15311 10.2311 9.12635 10.1892 9.09225 10.1535L8.22113 9.24417C8.15171 9.17472 8.05784 9.13523 7.95965 9.13418C7.86146 9.13312 7.76677 9.17058 7.69588 9.23853C7.62499 9.30648 7.58354 9.3995 7.58044 9.49765C7.57733 9.59579 7.6128 9.69125 7.67925 9.76355L8.55 10.6729ZM3.573 12.9488C2.62503 12.95 1.71629 13.3274 1.04637 13.9981C0.376439 14.6688 9.86178e-05 15.578 0 16.5259C0.19575 21.2682 6.95588 21.2629 7.15013 16.5259C7.14963 15.5774 6.77258 14.6679 6.10184 13.9972C5.43109 13.3265 4.52153 12.9492 3.573 12.9488ZM4.29 15.8314V17.2729C4.29933 17.5717 4.19017 17.862 3.98631 18.0806C3.78245 18.2992 3.50044 18.4284 3.20175 18.4399H2.87888C2.62862 18.423 2.39414 18.3117 2.22286 18.1284C2.05158 17.9452 1.95631 17.7037 1.95631 17.4529C1.95631 17.2021 2.05158 16.9606 2.22286 16.7774C2.39414 16.5942 2.62862 16.4828 2.87888 16.4659C2.98019 16.4656 3.07771 16.5045 3.15107 16.5743C3.22444 16.6442 3.26799 16.7397 3.27263 16.8409C3.27454 16.8895 3.26666 16.9379 3.24944 16.9833C3.23223 17.0287 3.20604 17.0702 3.17244 17.1053C3.13884 17.1403 3.09851 17.1683 3.05387 17.1874C3.00923 17.2066 2.96119 17.2165 2.91263 17.2167C2.7945 17.2013 2.70375 17.3082 2.70263 17.4529C2.70263 17.5804 2.78138 17.6892 2.87888 17.6892H3.20138C3.30093 17.6777 3.39205 17.6278 3.45521 17.55C3.51837 17.4722 3.54853 17.3727 3.53925 17.2729V14.9832C3.54103 14.9105 3.56369 14.8398 3.60454 14.7797C3.64538 14.7195 3.70268 14.6724 3.76959 14.6439C3.83649 14.6155 3.91018 14.6068 3.98185 14.6191C4.05352 14.6314 4.12014 14.6641 4.17375 14.7132C4.52719 15.0547 4.90329 15.3719 5.2995 15.6627C5.355 15.6668 5.40886 15.6834 5.45699 15.7113C5.50513 15.7393 5.54629 15.7778 5.57738 15.8239C5.60531 15.8646 5.62495 15.9103 5.63517 15.9586C5.64539 16.0069 5.64599 16.0567 5.63694 16.1052C5.62788 16.1536 5.60934 16.1999 5.58239 16.2412C5.55544 16.2825 5.5206 16.3181 5.47988 16.3459C5.29613 16.4734 5.15363 16.5709 4.29 15.8314ZM3.573 11.4102C4.52097 11.4101 5.43014 11.0337 6.10084 10.3638C6.77154 9.69388 7.14893 8.78514 7.15013 7.83717C6.96 3.09492 0.190125 3.0923 0 7.83717C0.00099268 8.78449 0.377752 9.69272 1.0476 10.3626C1.71746 11.0324 2.62569 11.4092 3.573 11.4102ZM2.32725 7.6118H2.9085V6.98142C2.9088 6.61412 3.05484 6.26195 3.31456 6.00223C3.57428 5.74251 3.92645 5.59647 4.29375 5.59617C4.6815 5.58755 5.40375 5.81367 5.142 6.31692C5.08977 6.40098 5.00654 6.46109 4.91032 6.48425C4.8141 6.50741 4.71264 6.49175 4.62788 6.44067C4.52769 6.37858 4.41199 6.34608 4.29413 6.34692C4.21077 6.34682 4.12822 6.36317 4.0512 6.39502C3.97417 6.42687 3.90418 6.4736 3.84525 6.53254C3.78631 6.59148 3.73957 6.66147 3.70772 6.73849C3.67587 6.81552 3.65953 6.89807 3.65963 6.98142V7.6118H4.36875C4.46831 7.6118 4.56378 7.65135 4.63418 7.72174C4.70458 7.79214 4.74413 7.88762 4.74413 7.98717C4.74413 8.08673 4.70458 8.18221 4.63418 8.2526C4.56378 8.323 4.46831 8.36255 4.36875 8.36255H3.65963V9.70242C3.65963 9.80198 3.62008 9.89746 3.54968 9.96785C3.47928 10.0382 3.38381 10.0778 3.28425 10.0778C3.1847 10.0778 3.08922 10.0382 3.01882 9.96785C2.94842 9.89746 2.90888 9.80198 2.90888 9.70242V8.36255H2.32725C2.22769 8.36255 2.13222 8.323 2.06182 8.2526C1.99142 8.18221 1.95188 8.08673 1.95188 7.98717C1.95188 7.88762 1.99142 7.79214 2.06182 7.72174C2.13222 7.65135 2.22769 7.6118 2.32725 7.6118ZM11.4251 7.23642C12.3868 7.23483 13.3086 6.85184 13.9883 6.17146C14.668 5.49108 15.05 4.56888 15.0506 3.60717C14.8534 -1.20483 7.9935 -1.19995 7.7955 3.60717C7.79689 4.56935 8.17975 5.49171 8.86015 6.17204C9.54055 6.85236 10.463 7.23513 11.4251 7.23642ZM9.4095 2.56017C9.4092 2.3039 9.51059 2.05798 9.69142 1.87638C9.87224 1.69478 10.1177 1.59234 10.374 1.59155H12.4721C12.7287 1.59224 12.9746 1.69447 13.156 1.87591C13.3374 2.05734 13.4397 2.30321 13.4404 2.5598V4.65792C13.4397 4.91419 13.3373 5.15972 13.1558 5.34062C12.9743 5.52151 12.7284 5.623 12.4721 5.6228H10.374C10.2473 5.62285 10.1218 5.59792 10.0048 5.54944C9.88769 5.50097 9.78133 5.42989 9.69175 5.34028C9.60218 5.25067 9.53114 5.14428 9.48271 5.02719C9.43428 4.91011 9.4094 4.78463 9.4095 4.65792V2.56017Z" fill="#FFFAF5"/>
<path d="M10.3739 4.87204H12.4721C12.5004 4.87243 12.5286 4.8672 12.5549 4.85665C12.5812 4.84609 12.6052 4.83042 12.6254 4.81054C12.6456 4.79067 12.6617 4.76697 12.6727 4.74084C12.6837 4.7147 12.6895 4.68665 12.6896 4.65829V2.55979C12.6895 2.50213 12.6665 2.44687 12.6257 2.4061C12.585 2.36533 12.5297 2.34238 12.4721 2.34229H10.3739C10.3456 2.34238 10.3175 2.3481 10.2914 2.35911C10.2652 2.37012 10.2415 2.38621 10.2217 2.40643C10.2018 2.42666 10.1861 2.45063 10.1756 2.47695C10.165 2.50327 10.1598 2.53143 10.1602 2.55979V4.65791C10.1599 4.68606 10.1652 4.71399 10.1758 4.74006C10.1865 4.76613 10.2022 4.78982 10.2221 4.80973C10.242 4.82963 10.2657 4.84537 10.2918 4.856C10.3178 4.86664 10.3458 4.87196 10.3739 4.87166V4.87204ZM11.4251 2.57854C11.6949 2.58368 11.952 2.6945 12.141 2.88716C12.33 3.07982 12.4359 3.33895 12.4359 3.60885C12.4359 3.87875 12.33 4.13788 12.141 4.33054C11.952 4.5232 11.6949 4.63401 11.4251 4.63916C11.1552 4.63401 10.8981 4.5232 10.7091 4.33054C10.5201 4.13788 10.4142 3.87875 10.4142 3.60885C10.4142 3.33895 10.5201 3.07982 10.7091 2.88716C10.8981 2.6945 11.1552 2.58368 11.4251 2.57854Z" fill="#FFFAF5"/>
<path d="M11.4248 3.88885C11.499 3.88885 11.5701 3.85937 11.6226 3.80691C11.6751 3.75445 11.7045 3.68329 11.7045 3.6091C11.7045 3.5349 11.6751 3.46375 11.6226 3.41128C11.5701 3.35882 11.499 3.32935 11.4248 3.32935C11.3524 3.332 11.2839 3.36261 11.2336 3.41475C11.1834 3.46689 11.1553 3.53649 11.1553 3.60891C11.1553 3.68133 11.1834 3.75093 11.2336 3.80307C11.2839 3.85521 11.3524 3.88619 11.4248 3.88885Z" fill="#FFFAF5"/>
</svg>
