<svg width="16" height="16" viewBox="0 0 16 16" fill="none" xmlns="http://www.w3.org/2000/svg">
<path d="M15.582 6.92117L13.8877 5.22679C13.7492 5.09217 13.5634 5.01746 13.3703 5.01882C13.1772 5.02018 12.9924 5.0975 12.8559 5.23406C12.7194 5.37062 12.6421 5.55544 12.6408 5.74853C12.6395 5.94162 12.7143 6.12747 12.8489 6.26586L13.7602 7.17711H10.2383C10.14 7.17424 10.0422 7.19111 9.95063 7.22673C9.85902 7.26235 9.7755 7.31598 9.70499 7.38446C9.63449 7.45293 9.57844 7.53486 9.54017 7.62539C9.5019 7.71591 9.48218 7.8132 9.48218 7.91148C9.48218 8.00976 9.5019 8.10705 9.54017 8.19758C9.57844 8.2881 9.63449 8.37003 9.70499 8.4385C9.7755 8.50698 9.85902 8.56061 9.95063 8.59623C10.0422 8.63185 10.14 8.64872 10.2383 8.64586H13.793L12.8817 9.55742C12.8135 9.62562 12.7594 9.70659 12.7225 9.79571C12.6856 9.88482 12.6666 9.98034 12.6666 10.0768C12.6666 10.1732 12.6856 10.2688 12.7225 10.3579C12.7594 10.447 12.8135 10.528 12.8817 10.5962C13.0195 10.7339 13.2063 10.8113 13.4011 10.8113C13.4976 10.8113 13.5931 10.7923 13.6822 10.7554C13.7713 10.7185 13.8523 10.6644 13.9205 10.5962L15.582 8.93461C15.7143 8.80237 15.8192 8.64537 15.8908 8.47258C15.9624 8.2998 15.9992 8.1146 15.9992 7.92757C15.9992 7.74055 15.9624 7.55535 15.8908 7.38257C15.8192 7.20978 15.7143 7.05278 15.582 6.92054V6.92117Z" fill="#F88D58"/>
<path d="M11.5243 9.58751C11.3374 9.5907 11.1582 9.66291 11.0214 9.79024C10.8846 9.91757 10.7996 10.091 10.783 10.2772C10.7558 10.635 10.7286 10.7553 10.6949 11.0219C10.6459 11.3788 10.4812 11.7097 10.2261 11.9641C9.97138 12.2226 9.63949 12.3913 9.2805 12.4447L9.25925 12.4475C9.0405 12.4788 8.83738 12.5063 8.62581 12.5313C8.66706 11.71 8.69331 10.7606 8.69988 9.81845C8.71175 8.26032 8.66863 6.65282 8.58331 5.61532C8.51942 4.88984 8.30406 4.18582 7.95113 3.54876C7.60206 2.92126 7.14831 2.42813 6.67269 2.1672L6.658 2.15938C6.24331 1.93251 5.89206 1.74032 5.28581 1.4847C5.54394 1.47626 5.79519 1.47095 6.12956 1.47095C7.77738 1.47751 8.3605 1.57657 9.17081 1.69876L9.19081 1.70188C9.54779 1.76276 9.87571 1.93686 10.1261 2.19845C10.3805 2.45776 10.5465 2.79078 10.6005 3.15001C10.6871 3.77782 10.7568 4.49376 10.7986 5.5272C10.8139 5.91657 11.1424 6.23438 11.5418 6.24376C11.9524 6.25313 12.2777 5.94095 12.2589 5.5497C12.2108 4.53345 12.1311 3.78095 12.0271 3.10157C11.9249 2.43688 11.5858 1.78595 11.0864 1.26595C10.5871 0.745947 9.95175 0.38501 9.28988 0.269072L9.26956 0.265635C8.46144 0.13126 7.82581 0.0109473 6.13206 0.00219727C4.43863 0.0121973 3.843 0.130635 3.03363 0.264385L3.01331 0.268135C2.35144 0.38376 1.71456 0.745635 1.21456 1.2647C0.714564 1.78376 0.376127 2.43563 0.273939 3.10032C0.122377 4.07876 0.0126892 5.61063 0.00112666 7.1072C-0.0104358 8.60376 0.0676892 10.1338 0.203627 11.1091C0.264177 11.5246 0.408673 11.9234 0.628314 12.2813C0.689252 12.4063 0.754877 12.5313 0.825189 12.6506C1.18988 13.2728 1.65831 13.7775 2.14081 14.0606L2.1555 14.0694C2.74363 14.4131 3.20988 14.6909 4.42519 15.21C5.63706 15.7225 6.08144 15.8256 6.648 15.96L6.66206 15.9634C7.12519 16.0713 7.56238 15.9225 7.90113 15.5522C8.22925 15.1934 8.45081 14.6434 8.523 14.0025C8.82019 13.9672 9.0855 13.9272 9.37269 13.8825L9.39331 13.8791C10.068 13.7738 10.7143 13.4253 11.2155 12.9181C11.7168 12.4109 12.0493 11.7684 12.1408 11.1056C12.1802 10.8188 12.2108 10.6778 12.2414 10.3094C12.2749 9.90845 11.9455 9.57907 11.5243 9.58751Z" fill="#F88D58"/>
</svg>
