<svg width="16" height="16" viewBox="0 0 16 16" fill="none" xmlns="http://www.w3.org/2000/svg">
<g clip-path="url(#clip0_739_14068)">
<path d="M8 0.000244141C3.58218 0.000244141 0 3.58173 0 7.99989C0 12.4181 3.58183 15.9995 8 15.9995C12.4185 15.9995 16 12.4181 16 7.99989C16 3.58173 12.4185 0.000244141 8 0.000244141ZM8 2.39223C8.70178 2.39219 9.37483 2.67092 9.87109 3.16712C10.3674 3.66332 10.6462 4.33633 10.6462 5.03811C10.6463 5.73988 10.3675 6.41294 9.87134 6.9092C9.37514 7.40546 8.70213 7.68429 8.00035 7.68433C7.29857 7.68438 6.62552 7.40565 6.12926 6.90945C5.633 6.41325 5.35417 5.74024 5.35412 5.03846C5.35408 4.33668 5.63281 3.66363 6.12901 3.16737C6.62521 2.6711 7.29822 2.39228 8 2.39223ZM7.99824 13.908C6.59639 13.9096 5.24023 13.4095 4.175 12.4982C4.05103 12.3924 3.95147 12.261 3.88316 12.113C3.81485 11.9651 3.77942 11.8041 3.77932 11.6411C3.77932 10.1593 4.97865 8.97327 6.46086 8.97327H9.53984C11.0224 8.97327 12.2172 10.1593 12.2172 11.6411C12.2173 11.804 12.182 11.965 12.1137 12.1129C12.0454 12.2609 11.9459 12.3922 11.8218 12.4978C10.7567 13.4095 9.4003 13.9097 7.99824 13.908Z" fill="#F88D58"/>
</g>
<defs>
<clipPath id="clip0_739_14068">
<rect width="16" height="16" fill="white"/>
</clipPath>
</defs>
</svg>
